<?xml version="1.0" encoding="utf-8"?>
<!-- Generator: Adobe Illustrator 15.1.0, SVG Export Plug-In . SVG Version: 6.00 Build 0)  -->
<!DOCTYPE svg PUBLIC "-//W3C//DTD SVG 1.1//EN" "http://www.w3.org/Graphics/SVG/1.1/DTD/svg11.dtd">
<svg version="1.1" id="Layer_1" xmlns="http://www.w3.org/2000/svg" xmlns:xlink="http://www.w3.org/1999/xlink" x="0px" y="0px"
	 width="91.529px" height="91.529px" viewBox="0 0 91.529 91.529" enable-background="new 0 0 91.529 91.529" xml:space="preserve">
<path fill="#4BC2D6" d="M91.529,45.764c0,25.275-20.49,45.766-45.765,45.766S0,71.039,0,45.764C0,20.49,20.489,0,45.764,0
	S91.529,20.49,91.529,45.764"/>
<g opacity="0.2">
	<g>
		<defs>
			<rect id="SVGID_1_" x="16.354" y="24.521" width="63.438" height="48.786"/>
		</defs>
		<clipPath id="SVGID_2_">
			<use xlink:href="#SVGID_1_"  overflow="visible"/>
		</clipPath>
		<path clip-path="url(#SVGID_2_)" fill="#50aae0" d="M23.225,55.646v9.229h4.467c0.427-2.769,2.72-4.457,5.699-4.457
			c2.978,0,5.501,2.158,5.697,4.457h15.763c0.458-2.246,2.634-4.66,5.601-4.66c2.965,0,5.608,2.414,6.066,4.66h3.775v-9.229H23.225z
			"/>
		<path clip-path="url(#SVGID_2_)" fill="none" stroke="#50aae0" stroke-width="2.045" stroke-miterlimit="10" d="M23.225,55.646
			v9.229h4.467c0.427-2.769,2.72-4.457,5.699-4.457c2.978,0,5.501,2.158,5.697,4.457h15.763c0.458-2.246,2.634-4.66,5.601-4.66
			c2.965,0,5.608,2.414,6.066,4.66h3.775v-9.229H23.225z"/>
		<path clip-path="url(#SVGID_2_)" fill="#50aae0" d="M39.323,66.174c0,3.268-2.648,5.916-5.916,5.916
			c-3.267,0-5.915-2.648-5.915-5.916c0-3.266,2.648-5.914,5.915-5.914C36.675,60.26,39.323,62.908,39.323,66.174"/>

			<circle clip-path="url(#SVGID_2_)" fill="none" stroke="#50aae0" stroke-width="2.308" stroke-miterlimit="10" cx="33.407" cy="66.174" r="5.916"/>
		<path clip-path="url(#SVGID_2_)" fill-rule="evenodd" clip-rule="evenodd" fill="#50aae0" d="M30.953,66.022
			c0.062-1.335,1.231-2.382,2.573-2.31c1.336,0.072,2.391,1.229,2.337,2.566c-0.052,1.325-1.212,2.402-2.544,2.359
			C31.929,68.588,30.888,67.438,30.953,66.022"/>
		<path clip-path="url(#SVGID_2_)" fill="none" stroke="#50aae0" stroke-width="0.469" stroke-miterlimit="10" d="M30.953,66.022
			c0.062-1.335,1.231-2.382,2.573-2.31c1.336,0.072,2.391,1.229,2.337,2.566c-0.052,1.325-1.212,2.402-2.544,2.359
			C31.929,68.588,30.888,67.438,30.953,66.022z"/>
		<path clip-path="url(#SVGID_2_)" fill="#50aae0" d="M66.455,66.236c0,3.268-2.647,5.916-5.914,5.916
			c-3.269,0-5.916-2.648-5.916-5.916c0-3.266,2.647-5.914,5.916-5.914C63.808,60.322,66.455,62.971,66.455,66.236"/>

			<circle clip-path="url(#SVGID_2_)" fill="none" stroke="#50aae0" stroke-width="2.308" stroke-miterlimit="10" cx="60.54" cy="66.236" r="5.915"/>
		<path clip-path="url(#SVGID_2_)" fill-rule="evenodd" clip-rule="evenodd" fill="#50aae0" d="M58.086,66.086
			c0.062-1.335,1.231-2.382,2.572-2.311c1.338,0.074,2.393,1.229,2.338,2.567c-0.052,1.325-1.212,2.402-2.544,2.358
			C59.062,68.652,58.021,67.501,58.086,66.086"/>
		<path clip-path="url(#SVGID_2_)" fill="none" stroke="#50aae0" stroke-width="0.469" stroke-miterlimit="10" d="M58.086,66.086
			c0.062-1.335,1.231-2.382,2.572-2.311c1.338,0.074,2.393,1.229,2.338,2.567c-0.052,1.325-1.212,2.402-2.544,2.358
			C59.062,68.652,58.021,67.501,58.086,66.086z"/>
		<path clip-path="url(#SVGID_2_)" fill="#50aae0" d="M21.837,48.859l-4.201-19.9c0,0-1.594-4.044,3.119-1.35
			c0,0,8.812,3.622,15.624-1.841c0,0,13.764,8.19,25.854,0c0,0,8.049,5.821,14.271,3.191c0,0,3.229-1.853,1.979,2.012l-6.125,18.081
			L21.837,48.859z"/>
		<path clip-path="url(#SVGID_2_)" fill="none" stroke="#50aae0" stroke-width="2.045" stroke-miterlimit="10" d="M21.837,48.859
			l-4.201-19.9c0,0-1.594-4.044,3.119-1.35c0,0,8.812,3.622,15.624-1.841c0,0,13.764,8.19,25.854,0c0,0,8.049,5.821,14.271,3.191
			c0,0,3.229-1.853,1.979,2.012l-6.125,18.081L21.837,48.859z"/>
		<path clip-path="url(#SVGID_2_)" fill="#50aae0" d="M29.162,28.688v7.467c0,0.564,0.456,1.021,1.02,1.021
			c0.563,0,1.02-0.456,1.02-1.021v-7.129C30.473,28.981,29.792,28.868,29.162,28.688"/>
		<path clip-path="url(#SVGID_2_)" fill="none" stroke="#50aae0" stroke-width="0.469" stroke-miterlimit="10" d="M29.162,28.688
			v7.467c0,0.564,0.456,1.021,1.02,1.021c0.563,0,1.02-0.456,1.02-1.021v-7.129C30.473,28.981,29.792,28.868,29.162,28.688z"/>
		<path clip-path="url(#SVGID_2_)" fill="#50aae0" d="M44.282,29.388v4.928c0,0.564,0.456,1.019,1.02,1.019
			c0.563,0,1.021-0.455,1.021-1.019v-4.283C45.596,29.877,44.919,29.655,44.282,29.388"/>
		<path clip-path="url(#SVGID_2_)" fill="none" stroke="#50aae0" stroke-width="0.469" stroke-miterlimit="10" d="M44.282,29.388
			v4.928c0,0.564,0.456,1.019,1.02,1.019c0.563,0,1.021-0.455,1.021-1.019v-4.283C45.596,29.877,44.919,29.655,44.282,29.388z"/>
		<polygon clip-path="url(#SVGID_2_)" fill="#50aae0" points="21.909,49.053 72.358,49.053 70.121,55.972 23.054,55.972 		"/>
		<polygon clip-path="url(#SVGID_2_)" fill="none" stroke="#50aae0" stroke-width="2.045" stroke-miterlimit="10" points="
			21.909,49.053 72.358,49.053 70.121,55.972 23.054,55.972 		"/>
		<path clip-path="url(#SVGID_2_)" fill="#50aae0" d="M50.822,30.217v5.06c0,0.564,0.457,1.02,1.021,1.02s1.021-0.456,1.021-1.02
			v-5.478C52.22,29.989,51.541,30.132,50.822,30.217"/>
		<path clip-path="url(#SVGID_2_)" fill="none" stroke="#50aae0" stroke-width="0.469" stroke-miterlimit="10" d="M50.822,30.217
			v5.06c0,0.564,0.457,1.02,1.021,1.02s1.021-0.456,1.021-1.02v-5.478C52.22,29.989,51.541,30.132,50.822,30.217z"/>
		<path clip-path="url(#SVGID_2_)" fill="#50aae0" d="M67.138,29.156v7.467c0,0.564,0.456,1.02,1.021,1.02
			c0.562,0,1.021-0.456,1.021-1.02v-7.13C68.449,29.45,67.768,29.336,67.138,29.156"/>
		<path clip-path="url(#SVGID_2_)" fill="none" stroke="#50aae0" stroke-width="0.469" stroke-miterlimit="10" d="M67.138,29.156
			v7.467c0,0.564,0.456,1.02,1.021,1.02c0.562,0,1.021-0.456,1.021-1.02v-7.13C68.449,29.45,67.768,29.336,67.138,29.156z"/>
		<path clip-path="url(#SVGID_2_)" fill="#50aae0" d="M23.048,61.085H18.12c-0.565,0-1.02,0.458-1.02,1.021s0.455,1.021,1.02,1.021
			h4.283C22.557,62.4,22.781,61.725,23.048,61.085"/>
		<path clip-path="url(#SVGID_2_)" fill="none" stroke="#50aae0" stroke-width="0.469" stroke-miterlimit="10" d="M23.048,61.085
			H18.12c-0.565,0-1.02,0.458-1.02,1.021s0.455,1.021,1.02,1.021h4.283C22.557,62.4,22.781,61.725,23.048,61.085z"/>
	</g>
</g>
<path fill="none" stroke="#FFFFFF" stroke-width="2.045" stroke-miterlimit="10" d="M22.231,55.105v9.229h4.468
	c0.426-2.769,2.719-4.457,5.698-4.457c2.978,0,5.501,2.158,5.697,4.457h15.764c0.459-2.244,2.634-4.659,5.6-4.659
	s5.609,2.415,6.068,4.659h3.773v-9.229H22.231z"/>
<circle fill="none" stroke="#FFFFFF" stroke-width="2.308" stroke-miterlimit="10" cx="32.414" cy="65.633" r="5.915"/>
<path fill-rule="evenodd" clip-rule="evenodd" fill="#FFFFFF" d="M29.959,65.481c0.062-1.335,1.231-2.382,2.573-2.31
	c1.337,0.072,2.391,1.229,2.337,2.566c-0.052,1.325-1.212,2.404-2.544,2.359C30.936,68.047,29.895,66.896,29.959,65.481"/>
<circle fill="none" stroke="#FFFFFF" stroke-width="2.308" stroke-miterlimit="10" cx="59.547" cy="65.696" r="5.916"/>
<path fill-rule="evenodd" clip-rule="evenodd" fill="#FFFFFF" d="M57.093,65.545c0.062-1.335,1.231-2.382,2.573-2.311
	c1.336,0.074,2.391,1.229,2.337,2.568c-0.052,1.324-1.212,2.401-2.544,2.357C58.068,68.111,57.027,66.96,57.093,65.545"/>
<path fill="none" stroke="#FFFFFF" stroke-width="2.045" stroke-miterlimit="10" d="M20.844,48.319l-4.201-19.901
	c0,0-1.595-4.044,3.119-1.35c0,0,8.812,3.622,15.624-1.84c0,0,13.763,8.189,25.853,0c0,0,8.051,5.82,14.272,3.19
	c0,0,3.229-1.853,1.978,2.013l-6.123,18.081L20.844,48.319z"/>
<path fill="#FFFFFF" d="M28.168,28.146v7.467c0,0.564,0.456,1.021,1.019,1.021c0.564,0,1.021-0.456,1.021-1.021v-7.129
	C29.479,28.44,28.798,28.327,28.168,28.146"/>
<path fill="#FFFFFF" d="M43.288,28.847v4.928c0,0.564,0.456,1.02,1.02,1.02c0.563,0,1.021-0.456,1.021-1.02v-4.283
	C44.602,29.336,43.926,29.114,43.288,28.847"/>
<polygon fill="none" stroke="#FFFFFF" stroke-width="2.045" stroke-miterlimit="10" points="20.916,48.513 71.365,48.513
	69.129,55.432 22.061,55.432 "/>
<path fill="#FFFFFF" d="M49.829,29.676v5.06c0,0.565,0.456,1.02,1.021,1.02c0.562,0,1.02-0.455,1.02-1.02v-5.478
	C51.227,29.448,50.548,29.591,49.829,29.676"/>
<path fill="#FFFFFF" d="M66.145,28.615v7.467c0,0.564,0.455,1.021,1.02,1.021c0.562,0,1.021-0.456,1.021-1.021v-7.13
	C67.455,28.909,66.775,28.795,66.145,28.615"/>
<path fill="#FFFFFF" d="M22.054,60.544h-4.928c-0.564,0-1.02,0.458-1.02,1.021s0.456,1.021,1.02,1.021h4.283
	C21.564,61.859,21.787,61.184,22.054,60.544"/>
</svg>
